<?xml version="1.0" encoding="UTF-8"?><svg id="a" xmlns="http://www.w3.org/2000/svg" xmlns:xlink="http://www.w3.org/1999/xlink" viewBox="0 0 64.18913 36.47826"><defs><clipPath id="b"><rect x=".06931" y=".01518" width="64.05051" height="36.44791" rx="7.42084" ry="7.42084" fill="none" stroke-width="0"/></clipPath></defs><g clip-path="url(#a)"><rect x="31.41848" y=".05436" width="32.77065" height="8.5081" fill="#ed2939" stroke-width="0"/><rect x="31.41848" y="8.56247" width="32.77065" height="8.5081" fill="#fff" stroke-width="0"/><path d="m37.53667,7.36751c-.21509.0478-.45408.07169-.69307.07169-1.74464,0-3.13079-1.41006-3.13079-3.15469s1.41005-3.13079,3.13079-3.13079c.23899,0,.45408.02389.69307.07169-1.38615.33459-2.41382,1.57734-2.41382,3.05909,0,1.50565,1.02767,2.7484,2.41382,3.083Z" fill="#fff" stroke-width="0"/><polygon points="36.8197 2.92226 37.01089 3.49585 37.60837 3.49585 37.10649 3.83044 37.29768 4.40401 36.8197 4.04552 36.34171 4.40401 36.5329 3.83044 36.05492 3.49585 36.6285 3.49585 36.8197 2.92226" fill="#fff" stroke-width="0"/><polygon points="40.23727 2.92226 40.04608 3.49585 39.4486 3.49585 39.92659 3.83044 39.75929 4.40401 40.23727 4.04552 40.71526 4.40401 40.52407 3.83044 41.00205 3.49585 40.40457 3.49585 40.23727 2.92226" fill="#fff" stroke-width="0"/><polygon points="38.51653 1.70341 38.70773 2.25309 39.30521 2.25309 38.82722 2.61157 38.99452 3.16125 38.51653 2.82667 38.03855 3.16125 38.22975 2.61157 37.75176 2.25309 38.34924 2.25309 38.51653 1.70341" fill="#fff" stroke-width="0"/><polygon points="37.46497 4.95369 37.65617 5.50338 38.25365 5.50338 37.77566 5.86187 37.94296 6.41155 37.46497 6.07695 36.98699 6.41155 37.17818 5.86187 36.7002 5.50338 37.27378 5.50338 37.46497 4.95369" fill="#fff" stroke-width="0"/><polygon points="39.5681 4.95369 39.75929 5.50338 40.35677 5.50338 39.87879 5.86187 40.04608 6.41155 39.5681 6.07695 39.09012 6.41155 39.28131 5.86187 38.80332 5.50338 39.4008 5.50338 39.5681 4.95369" fill="#fff" stroke-width="0"/><path d="m0,17.12495h64.18913v19.35331H0v-19.35331Z" fill="#ee1c25" stroke-width="0"/><g id="c"><rect width="31.41848" height="17.12495" fill="#fff" stroke-width="0"/></g><g id="d"><path d="m33.21138,21.12018c-.47497.15207-.73674.66038-.58467,1.13535.02446.07639.05898.14918.10267.21645.43947.67678.2471,1.58168-.42968,2.02115-.07187.04667-.1477.08692-.22662.1203-.63593.26894-.93344,1.00249-.6645,1.63842.07128.16854.17868.31937.31463.44186-.97729-.69536-1.22221-2.04298-.55208-3.03774-.0125-.01071-.02447-.02202-.03588-.03389-.6855,1.00978-.4456,2.38138.54194,3.09854-1.49819-.60007-2.22627-2.30105-1.6262-3.79924.5058-1.26283,1.81609-2.0096,3.16039-1.8012" fill="#fff" stroke-width="0"/><path d="m31.88659,22.92844l-.89161.38885.94989.20949-.64535-.72781.0943.96814" fill="#ee1c25" stroke-width="0"/></g><g id="e"><g id="f"><path d="m37.62923,26.348c-.2914-.40473-.85573-.49661-1.26046-.20522-.06509.04687-.12365.1022-.17413.16453-.50785.6271-1.42791.72377-2.05501.21592-.06659-.05393-.12831-.11361-.18444-.17836-.45229-.5217-1.24187-.57797-1.76357-.12568-.13826.11987-.24853.26862-.32301.43577.35933-1.14434,1.5653-1.79371,2.71846-1.46377.00633-.0152.01338-.03008.02115-.04459-1.17219-.33991-2.40252.3121-2.77942,1.47292.10773-1.6103,1.50047-2.82837,3.11077-2.72063,1.35732.09081,2.47245,1.10621,2.68966,2.44911" fill="#fff" stroke-width="0"/><path d="m35.50009,25.64684l-.64535-.72781.0943.96814.49277-.83867-.89161.38885" fill="#ee1c25" stroke-width="0"/></g><g id="g"><path d="m27.37551,30.53247c.47364.15616.9842-.10121,1.14036-.57486.02512-.07618.03997-.15536.04417-.23546.04226-.80584.72978-1.42485,1.53562-1.38259.08557.00449.17058.01649.25405.03588.67256.15621,1.34442-.26237,1.50063-.93493.0414-.17824.04317-.3634.00518-.5424.38192,1.137-.21204,2.3712-1.3389,2.78209.00381.01601.00685.0322.0091.04851,1.14811-.414,1.76024-1.66466,1.38284-2.82532.85935,1.36608.44857,3.17015-.91751,4.0295-1.15147.72435-2.65047.55833-3.61553-.40043" fill="#fff" stroke-width="0"/><path d="m29.51016,29.84824l.94989.20949-.64535-.72781.0943.96814.49277-.83867" fill="#ee1c25" stroke-width="0"/></g></g><g id="h"><g id="i"><path d="m34.02247,32.16512c.29488-.40221.20787-.9673-.19433-1.26218-.06469-.04743-.1354-.08602-.21029-.11477-.75334-.28921-1.1296-1.13436-.84039-1.88771.03071-.08.0684-.15714.11263-.23053.3564-.59137.16592-1.35969-.42545-1.71609-.15673-.09445-.33228-.15335-.51426-.17254,1.19937-.01188,2.18962.93441,2.23218,2.13308.01641.00132.03274.00344.04894.00633-.03895-1.21985-1.03924-2.18849-2.25972-2.18823,1.56478-.39515,3.15361.55302,3.54876,2.11779.33307,1.31895-.28804,2.69328-1.49809,3.31484" fill="#fff" stroke-width="0"/><path d="m34.03138,29.92351l.49277-.83867-.89161.38885.94989.20949-.64535-.72781" fill="#ee1c25" stroke-width="0"/></g><g id="j"><path d="m26.87423,23.70632c-.00215.49872.40039.90475.89911.9069.08021.00035.16011-.01.23758-.03075.77946-.20883,1.58062.25376,1.78945,1.03322.02218.08277.03703.16733.04438.25271.05926.68792.66497,1.19754,1.35289,1.13828.18231-.01571.35896-.07124.51746-.16269-.96333.71458-2.32067.53108-3.05967-.41366-.01405.00857-.02851.01647-.04332.02365.74853.96398,2.12713,1.15968,3.11435.44208-1.03367,1.23943-2.87638,1.40624-4.11581.37258-1.04472-.87128-1.35004-2.34821-.73643-3.56231" fill="#fff" stroke-width="0"/><path d="m28.18461,25.52505l.0943.96814.49277-.83867-.89161.38885.94989.20949" fill="#ee1c25" stroke-width="0"/></g></g><ellipse cx="15.70924" cy="8.56247" rx="4.81038" ry="5.0509" fill="#ef3341" stroke-width="0"/></g></svg>